<svg width="46" height="24" viewBox="0 0 46 24" fill="none" xmlns="http://www.w3.org/2000/svg">
<path d="M0.784 17C0.677333 17 0.624 16.9413 0.624 16.824V15.816C0.624 15.6987 0.677333 15.64 0.784 15.64H3.264V8.216L0.896 8.952C0.778667 8.984 0.72 8.94667 0.72 8.84V7.784C0.72 7.69867 0.757333 7.64533 0.832 7.624L4.224 6.488C4.26667 6.47733 4.304 6.472 4.336 6.472C4.37867 6.46133 4.42133 6.456 4.464 6.456H4.624C4.73067 6.456 4.784 6.50933 4.784 6.616V15.64H6.992C7.09867 15.64 7.152 15.6987 7.152 15.816V16.824C7.152 16.9413 7.09867 17 6.992 17H0.784Z" fill="#8E2694"/>
<rect x="20" y="9.5" width="5" height="5" fill="#0CB2CA"/>
<path d="M40.952 17.192C40.2587 17.192 39.672 17.0853 39.192 16.872C38.712 16.648 38.3493 16.328 38.104 15.912C37.8693 15.4853 37.7573 14.968 37.768 14.36C37.768 14.2533 37.8213 14.2 37.928 14.2H39.064C39.1813 14.2 39.24 14.2533 39.24 14.36C39.24 14.8507 39.3893 15.224 39.688 15.48C39.9973 15.736 40.456 15.864 41.064 15.864C41.8 15.864 42.328 15.7147 42.648 15.416C42.9787 15.1067 43.144 14.632 43.144 13.992V13.528C43.144 13.0907 43.0693 12.728 42.92 12.44C42.7813 12.152 42.552 11.9387 42.232 11.8C41.9227 11.6613 41.5227 11.592 41.032 11.592C40.68 11.592 40.2587 11.6453 39.768 11.752C39.288 11.848 38.824 11.992 38.376 12.184C38.28 12.2267 38.2 12.2267 38.136 12.184C38.0827 12.1413 38.0613 12.0773 38.072 11.992L38.568 6.696C38.5787 6.57867 38.632 6.52 38.728 6.52H43.88C43.9973 6.52 44.056 6.57867 44.056 6.696V7.704C44.056 7.82133 43.9973 7.88 43.88 7.88H39.88L39.688 10.552C40.0293 10.4667 40.344 10.408 40.632 10.376C40.9307 10.344 41.208 10.328 41.464 10.328C42.4667 10.328 43.2507 10.6107 43.816 11.176C44.392 11.7307 44.68 12.568 44.68 13.688C44.68 14.84 44.36 15.7147 43.72 16.312C43.0907 16.8987 42.168 17.192 40.952 17.192Z" fill="#9E9E9E"/>
</svg>
